<svg version="1.1" id="Layer_1" xmlns="http://www.w3.org/2000/svg" x="0px" y="0px"
	 viewBox="0 0 708.7 687.9" enable-background="new 0 0 708.7 687.9" xml:space="preserve">
<path fill="#F2F1EC" d="M355.6,687.9C124.9,687.9,0,543.9,0,358C0,159.4,140.6,0,392,0c183.5,0,316.7,119.2,316.7,283.5
	c0,257.2-305,325.2-289.7,178.4c-21,32.7-54.7,69.5-119.7,69.5c-74.3,0-120.5-54.4-120.5-141.9c0-131.2,86.2-242.1,188.4-242.1
	c49,0,82.7,25.9,96.8,65.6l13.7-48.2h69c-7.2,24.6-68.5,251.8-68.5,251.8c-19.1,78.7,39.9,80.1,92.2,38.3
	c98.3-76.2,103.4-275.4-29.5-358.5C398.5,11,74.4,63.8,74.4,353c0,165.7,116.6,277,290.2,277c101.5,0,163.6-27.5,215.4-57.5
	l34.8,50.1C564.3,651.2,483.1,687.9,355.6,687.9z M286.4,265.5c-21.1,39.6-34.8,90.8-34.8,130.6c0,106.6,104,107.3,155.1,7.1
	c21-41.2,34.6-93.6,34.6-133.7C441.3,183.3,338.1,168,286.4,265.5z"/>
</svg>
