<svg version="1.1" id="Layer_1" xmlns="http://www.w3.org/2000/svg" x="0px" y="0px"
	 viewBox="0 0 708.7 708.7" enable-background="new 0 0 708.7 708.7" xml:space="preserve">
<path fill="#F2F1EC" d="M561.4,0.4H148.1C66.5,0.4,0.4,66.5,0.4,148.1v413.4c0,81.5,66.1,147.6,147.6,147.6h413.4
	c81.6,0,147.6-66.1,147.6-147.6V148.1C709.1,66.5,643,0.4,561.4,0.4z M472.9,207.1H416c-18.2,0-31.8,7.4-31.8,26.3v32.8h88.6
	l-7,88.6h-81.6V591h-88.6V354.7h-59.1v-88.6h59.1v-56.8c0-59.7,31.4-90.9,102.2-90.9h75V207.1z"/>
</svg>
