<svg version="1.1" id="Layer_1" xmlns="http://www.w3.org/2000/svg" xmlns:xlink="http://www.w3.org/1999/xlink" x="0px" y="0px"
	 viewBox="0 0 708.7 708.7" enable-background="new 0 0 708.7 708.7" xml:space="preserve">
<path fill="#F2F1EC" d="M353.8,63.8c94.6,0,105.8,0.4,143.2,2.1c96,4.4,140.9,49.9,145.2,145.2c1.7,37.4,2,48.6,2,143.2
	c0,94.6-0.4,105.8-2,143.2c-4.4,95.2-49.1,140.9-145.2,145.2c-37.4,1.7-48.5,2.1-143.2,2.1c-94.6,0-105.8-0.4-143.2-2.1
	c-96.3-4.4-140.9-50.2-145.2-145.3c-1.7-37.4-2.1-48.5-2.1-143.2c0-94.6,0.4-105.8,2.1-143.2c4.4-95.3,49.1-140.9,145.2-145.2
	C248,64.1,259.2,63.8,353.8,63.8z M353.8-0.1c-96.2,0-108.3,0.4-146.1,2.1C79,7.9,7.5,79.3,1.6,208.1C-0.1,246-0.5,258-0.5,354.2
	s0.4,108.3,2.1,146.1C7.5,629,78.9,700.5,207.7,706.5c37.8,1.7,49.9,2.1,146.1,2.1s108.3-0.4,146.1-2.1
	c128.6-5.9,200.3-77.3,206.1-206.1c1.7-37.8,2.2-49.9,2.2-146.1S707.7,246,706,208.2C700.2,79.6,628.7,8,499.9,2.1
	C462.1,0.3,450-0.1,353.8-0.1z M353.8,172.3c-100.5,0-181.9,81.5-181.9,181.9s81.5,182,181.9,182s181.9-81.5,181.9-182
	C535.7,253.8,454.3,172.3,353.8,172.3z M353.8,472.4c-65.2,0-118.1-52.9-118.1-118.1c0-65.2,52.9-118.1,118.1-118.1
	S471.9,289,471.9,354.2C471.9,419.5,419,472.4,353.8,472.4z M543,122.6c-23.5,0-42.5,19-42.5,42.5s19,42.5,42.5,42.5
	c23.5,0,42.5-19,42.5-42.5S566.4,122.6,543,122.6z"/>
</svg>
