<svg version="1.1" id="Layer_1" xmlns="http://www.w3.org/2000/svg" xmlns:xlink="http://www.w3.org/1999/xlink" x="0px" y="0px"
	 viewBox="0 0 708.7 575.9" enable-background="new 0 0 708.7 575.9" xml:space="preserve">
<path fill="#F2F1EC" d="M708.7,68.2c-26.1,11.6-54.1,19.4-83.5,22.9c30-18,53.1-46.5,63.9-80.4c-28.1,16.7-59.2,28.8-92.3,35.3
	C570.3,17.7,532.4,0,490.6,0C396.8,0,327.8,87.6,349,178.5c-120.8-6.1-227.9-63.9-299.6-151.9c-38.1,65.3-19.8,150.8,45,194.1
	c-23.8-0.8-46.2-7.3-65.8-18.2c-1.6,67.4,46.7,130.4,116.6,144.4c-20.5,5.6-42.9,6.9-65.7,2.5c18.5,57.8,72.2,99.8,135.8,101
	C154.1,498.3,77.1,519.7,0,510.6c64.3,41.3,140.8,65.3,222.9,65.3c269.9,0,422.5-228,413.2-432.5C664.5,122.9,689.2,97.3,708.7,68.2
	z"/>
</svg>
