<svg xmlns="http://www.w3.org/2000/svg" viewBox="0 0 708.7 708.7"><path fill="#F2F1EC" d="M353.8 63.8c94.6 0 105.8.4 143.2 2.1 96 4.4 140.9 49.9 145.2 145.2 1.7 37.4 2 48.6 2 143.2s-.4 105.8-2 143.2c-4.4 95.2-49.1 140.9-145.2 145.2-37.4 1.7-48.5 2.1-143.2 2.1-94.6 0-105.8-.4-143.2-2.1-96.3-4.4-140.9-50.2-145.2-145.3-1.7-37.4-2.1-48.5-2.1-143.2 0-94.6.4-105.8 2.1-143.2 4.4-95.3 49.1-140.9 145.2-145.2 37.4-1.7 48.6-2 143.2-2zm0-63.9C257.6-.1 245.5.3 207.7 2 79 7.9 7.5 79.3 1.6 208.1-.1 246-.5 258-.5 354.2s.4 108.3 2.1 146.1C7.5 629 78.9 700.5 207.7 706.5c37.8 1.7 49.9 2.1 146.1 2.1s108.3-.4 146.1-2.1c128.6-5.9 200.3-77.3 206.1-206.1 1.7-37.8 2.2-49.9 2.2-146.1s-.5-108.3-2.2-146.1C700.2 79.6 628.7 8 499.9 2.1 462.1.3 450-.1 353.8-.1zm0 172.4c-100.5 0-181.9 81.5-181.9 181.9s81.5 182 181.9 182 181.9-81.5 181.9-182c0-100.4-81.4-181.9-181.9-181.9zm0 300.1c-65.2 0-118.1-52.9-118.1-118.1 0-65.2 52.9-118.1 118.1-118.1s118.1 52.8 118.1 118c0 65.3-52.9 118.2-118.1 118.2zM543 122.6c-23.5 0-42.5 19-42.5 42.5s19 42.5 42.5 42.5 42.5-19 42.5-42.5-19.1-42.5-42.5-42.5z"/></svg>