<svg xmlns="http://www.w3.org/2000/svg" viewBox="0 0 708.7 457.1"><path fill="none" stroke="#F8F9FD" stroke-width="7.966" stroke-linecap="round" stroke-linejoin="round" stroke-miterlimit="10" d="M251.7 78.7V46.8h-39.9"/><path fill="#F8F9FD" d="M564.1 143.9c-.5-2.6-3-4.2-5.6-3.7-32.7 6.5-51 24-60.7 37.6-6.4 8.9-9.9 17.3-11.7 22.7l-25.3-12.6c-1.6-.8-3.4-.6-4.8.4s-2.2 2.7-1.9 4.5l8.7 67.6c.2 1.6 1.2 2.9 2.6 3.6.4.2.8.3 1.2.4 1.1.2 2.3 0 3.3-.5l59.1-34c1.5-.9 2.4-2.5 2.4-4.2-.1-1.7-1.1-3.3-2.6-4.1l-19.9-9.9c-2.3-1.2-5.2-.2-6.3 2.1-1.2 2.3-.2 5.2 2.1 6.3l12 6-45.3 26.1-6.6-51.8 22.5 11.2c1.3.7 2.9.7 4.2 0 1.3-.7 2.3-1.9 2.6-3.3.1-.5 10-47.4 66.5-58.6 2.3-.7 4-3.2 3.5-5.8zm112 69.2c-4.6-10-10.1-17.2-13.8-21.4l23.5-15.6c1.5-1 2.3-2.7 2.1-4.4a4.9 4.9 0 00-2.9-3.9l-62.9-26.3c-1.5-.6-3.1-.5-4.4.4-1.3.9-2.1 2.4-2.1 3.9l-.1 68.2c0 1.7 1 3.3 2.5 4.2 1.5.8 3.4.7 4.9-.2l18.5-12.3c2.2-1.4 2.8-4.4 1.3-6.6-1.4-2.2-4.4-2.8-6.6-1.3l-11.2 7.4.1-52.3 48.2 20.2-20.9 13.9c-1.2.8-2 2.2-2.1 3.6-.1 1.5.5 2.9 1.6 3.9 1.5 1.3 36 32.6 17.5 86.9-.8 2.5.5 5.2 3 6 .2.1.4.1.6.2 2.3.5 4.6-.8 5.4-3.1 10.7-31.6 4.7-56.3-2.2-71.4zm-30 115.5c-.1-1.6-1-3-2.3-3.8l-59-34.2c-1.5-.9-3.4-.8-4.9.1-1.5.9-2.3 2.6-2.2 4.3l1.4 22.2c.2 2.6 2.4 4.6 5 4.4 2.6-.2 4.6-2.4 4.4-5l-.8-13.4 45.2 26.2-41.6 31.7-1.6-25.1c-.1-1.5-.9-2.8-2.1-3.6-1.2-.8-2.8-1-4.2-.5-.5.2-46 15-84-28.3-1.7-2-4.7-2.2-6.7-.4-2 1.7-2.2 4.7-.4 6.7 22 25 46.3 32.2 62.9 33.8 10.9 1 19.9-.1 25.5-1.2l1.8 28.2c.1 1.7 1.2 3.3 2.8 4 .3.2.7.3 1 .3 1.3.3 2.7 0 3.8-.9l54.2-41.3c1.2-1.1 1.9-2.7 1.8-4.2z"/><path fill="none" d="M0 344.5h708.7v109H0z"/><path fill="#F5B342" d="M222.5 347.5c4.1-.7 8.5-1.2 12.7-1.2 6.3 0 11.5 1.8 14.6 5 3 3.2 4.5 7.5 4.5 12.5 0 11.2-7 21.4-16.8 24.6v.2c4.9 1.9 7.3 7.5 7.4 18 .2 11.1.7 17.9 1.3 20.4h-8.7c-.6-2.4-.7-10-.8-20-.4-11.2-3-15.5-10.3-15.5h-3.8L216 427h-8.5l15-79.5zm1.5 37.3h4.2c9.7 0 17.1-8.8 17.1-20.3 0-6.2-2.7-11.1-10.5-11.1-1.8 0-3.6.1-4.9.6l-5.9 30.8z"/><path fill="#F8F9FD" d="M285.6 424.3c-4.2 2.3-8.6 3.6-13.6 3.6-12.2 0-16.1-9.3-16.1-20.4 0-15.7 8.7-39.1 25.2-39.1 8.5 0 11.9 6.5 11.9 13.1 0 14-12.4 20-28.2 20.1-.2 1.7-.6 8.1.4 11.6 1.3 4.9 4.3 7.5 8.8 7.5s7.6-1.6 10.3-3.1l1.3 6.7zm-5.8-48.5c-5.1 0-10.6 6.3-13.7 18.9 9.2-.1 18.9-3.2 18.9-12.5-.1-4.1-1.8-6.4-5.2-6.4zm44.9 16.6l-1.3 7.2h-26.2l1.3-7.2h26.2z"/><path fill="#F5B342" d="M365 426.1c-2.5 1.2-6.2 1.8-10.6 1.8-16.7 0-20.8-14.9-20.8-28 0-15.9 4.4-33.3 15.2-44.3 6.8-6.9 14.7-9.7 21.6-9.7 3.6 0 6.9.7 8 1.4l-2.5 7.6c-1.7-.7-3.9-1.1-6.5-1.1-5.5 0-10.9 2.7-14.9 7.4-7.2 8.6-11.8 22.6-11.8 36.2 0 13.3 3.2 22.5 13.6 22.5 3.2 0 6.3-.7 8.2-1.6l.5 7.8z"/><path fill="#F8F9FD" d="M382.2 369.4l1.9 32.4c.2 5.3.4 8.6.6 14.3h.2c1.6-5 3.2-9.4 5.1-14.6l11.9-32.1h8.8l-19.4 47c-5.3 12.9-11.3 23.7-19 30.2-3.5 2.9-6.8 5-9 5.7l-3.5-7.3c2.5-1.2 5.6-3 8.6-5.5 3.6-3 7.5-8.2 9.3-12.5.5-1.2.6-2 .5-3.2l-5.1-54.4h9.1zm52.1 56.8c-2.2 1-5.5 1.7-9.4 1.7-11.6 0-15.8-9.4-15.8-20.7 0-16.8 9.9-38.7 28.8-38.7 2.5 0 4.5.4 5.7 1l-2.3 7.4c-1.2-.4-2.5-.8-4.3-.8-12.1 0-19.1 17.2-19.1 30.2 0 8.5 2.5 14.2 9.2 14.2 2.3 0 4.8-.6 7-1.4l.2 7.1zm7.1 1l15.5-82.7h8.7l-15.8 82.7h-8.4zm53.2-2.9c-4.2 2.3-8.6 3.6-13.6 3.6-12.2 0-16.1-9.3-16.1-20.4 0-15.7 8.7-39.1 25.2-39.1 8.5 0 11.9 6.5 11.9 13.1 0 14-12.4 20-28.2 20.1-.2 1.7-.6 8.1.4 11.6 1.3 4.9 4.3 7.5 8.8 7.5s7.6-1.6 10.3-3.1l1.3 6.7zm-5.9-48.5c-5.1 0-10.6 6.3-13.7 18.9 9.2-.1 18.9-3.2 18.9-12.5 0-4.1-1.7-6.4-5.2-6.4zM28.2 264.5c-2.5.7-4 3.2-3.4 5.8 8.4 32.2 27 49.5 41.1 58.3 9.3 5.8 17.9 8.8 23.3 10.3l-11 26c-.7 1.6-.4 3.5.7 4.8 1.1 1.4 2.8 2 4.6 1.7l67-12.7c1.6-.3 2.9-1.3 3.5-2.8.2-.4.3-.8.3-1.2.2-1.1-.1-2.3-.7-3.3l-37.5-57c-1-1.5-2.6-2.3-4.4-2.1a4.9 4.9 0 00-3.9 2.9l-8.7 20.5c-1 2.4.1 5.2 2.5 6.2s5.2-.1 6.2-2.5l5.2-12.3 28.7 43.7-51.4 9.7 9.8-23.1c.6-1.4.5-2.9-.2-4.2-.7-1.3-2-2.1-3.5-2.3-.5-.1-47.9-7.1-62.5-62.9-.6-2.6-3.2-4.1-5.7-3.5zm62.4-115.9c-9.7 5.2-16.6 11.1-20.6 15.1l-17-22.5c-1.1-1.4-2.8-2.1-4.5-1.8-1.7.3-3.2 1.5-3.7 3.1l-22.5 64.4c-.5 1.5-.3 3.1.7 4.4 1 1.3 2.5 2 4.1 1.9l68.1-4c1.7-.1 3.3-1.2 4-2.7.7-1.6.5-3.4-.5-4.8L85.3 184c-1.6-2.1-4.5-2.5-6.6-.9-2.1 1.6-2.5 4.5-.9 6.6l8.1 10.7-52.2 3.1 17.2-49.3 15.1 20c.9 1.2 2.3 1.9 3.7 1.9 1.5 0 2.9-.7 3.8-1.8 1.2-1.6 30.4-37.9 85.7-22.7 2.5.7 5.1-.8 5.8-3.3.1-.2.1-.4.1-.6.3-2.3-1.1-4.6-3.4-5.2-32.2-9.2-56.5-1.7-71.1 6.1zm117 23c-1.6.2-2.9 1.2-3.6 2.6l-30.6 61c-.8 1.6-.6 3.4.4 4.8s2.7 2.2 4.4 2l22.1-2.7c2.6-.3 4.4-2.7 4.1-5.3-.3-2.6-2.7-4.4-5.3-4.1l-13.3 1.6 23.4-46.7 34.1 39.6-24.9 3.1c-1.5.2-2.8 1-3.5 2.3-.7 1.3-.9 2.8-.3 4.2.2.4 17.8 45.1-23.2 85.6-1.9 1.8-1.9 4.8 0 6.7 1.8 1.9 4.8 1.9 6.7 0 23.7-23.4 29.4-48.1 29.9-64.8.4-11-1.3-19.9-2.8-25.3l28-3.5c1.7-.2 3.2-1.4 3.8-3 .1-.3.2-.7.3-1 .2-1.3-.2-2.7-1.1-3.7l-44.5-51.7c-1-1.3-2.5-1.9-4.1-1.7z"/><path fill="none" stroke="#F5B342" stroke-width="7.966" stroke-linecap="round" stroke-linejoin="round" stroke-miterlimit="10" d="M251.7 79.7l53.7 193.1-187.1-25.9zm53.7 193.1L582.2 81.6l-330.5-1.9"/><path fill="none" stroke="#F8F9FD" stroke-width="7.966" stroke-linecap="round" stroke-linejoin="round" stroke-miterlimit="10" d="M521.5 4h61.7l-1.9 240.9"/></svg>