<svg xmlns="http://www.w3.org/2000/svg" viewBox="0 0 708.7 575.9"><path fill="#F2F1EC" d="M708.7 68.2c-26.1 11.6-54.1 19.4-83.5 22.9 30-18 53.1-46.5 63.9-80.4C661 27.4 629.9 39.5 596.8 46 570.3 17.7 532.4 0 490.6 0 396.8 0 327.8 87.6 349 178.5c-120.8-6.1-227.9-63.9-299.6-151.9-38.1 65.3-19.8 150.8 45 194.1-23.8-.8-46.2-7.3-65.8-18.2-1.6 67.4 46.7 130.4 116.6 144.4-20.5 5.6-42.9 6.9-65.7 2.5 18.5 57.8 72.2 99.8 135.8 101C154.1 498.3 77.1 519.7 0 510.6c64.3 41.3 140.8 65.3 222.9 65.3 269.9 0 422.5-228 413.2-432.5 28.4-20.5 53.1-46.1 72.6-75.2z"/></svg>